<svg xmlns="http://www.w3.org/2000/svg" width="19.563" height="16.3" viewBox="0 0 19.563 16.3">
  <g id="back_1_" data-name="back (1)" transform="translate(0.15 -41.524)">
    <g id="Groupe_1" data-name="Groupe 1" transform="translate(0 41.674)">
      <path id="Tracé_1" data-name="Tracé 1" d="M18.18,48.163l.03.007H5.32l4.052-4.061a1.064,1.064,0,0,0,0-1.5l-.631-.631a1.055,1.055,0,0,0-1.489,0L.307,48.927a1.062,1.062,0,0,0,0,1.494l6.946,6.946a1.056,1.056,0,0,0,1.489,0l.631-.631a1.043,1.043,0,0,0,.307-.744,1.012,1.012,0,0,0-.307-.73l-4.1-4.084h12.92A1.092,1.092,0,0,0,19.263,50.1V49.2A1.071,1.071,0,0,0,18.18,48.163Z" transform="translate(0 -41.674)" fill="#fff" stroke="#56d7bc" stroke-width="0.3"/>
    </g>
  </g>
</svg>
