<svg xmlns="http://www.w3.org/2000/svg" xmlns:xlink="http://www.w3.org/1999/xlink" width="200" height="90" viewBox="0 0 200 90">
  <defs>
    <clipPath id="clip-path">
      <rect id="Purple_Background" data-name="Purple Background" width="200" height="90" rx="8" transform="translate(30 445)" fill="#5945c7"/>
    </clipPath>
  </defs>
  <g id="Groupe_de_masques_1" data-name="Groupe de masques 1" transform="translate(-30 -445)" clip-path="url(#clip-path)">
    <path id="Union_1" data-name="Union 1" d="M1500.034,524.395a1.135,1.135,0,1,1,0-2.271h3.468V492.507a1.135,1.135,0,0,1,.976-1.123l11.216-1.61v-27.68a1.137,1.137,0,0,1,1-1.128l4.37-.528v-3.874a1.136,1.136,0,0,1,.98-1.125l5.542-.772v-3.433a1.137,1.137,0,0,1,2.274,0v3.116l2.3-.32v-3.5a1.137,1.137,0,0,1,2.274,0v3.183l1.752-.244a1.125,1.125,0,0,1,.258-.022,1.14,1.14,0,0,1,.314.05l5.858,1.34a1.135,1.135,0,0,1,.883,1.107v3.274l5.274,1.206a1.135,1.135,0,0,1,.883,1.107V482.6a1.137,1.137,0,0,1-2.273,0V462.435l-7.058-1.614v61.3h2.406V487.887a1.135,1.135,0,0,1,.975-1.123l11.943-1.715a1.135,1.135,0,0,1,.244-.023h0a1.136,1.136,0,0,1,.335.051l6.957,1.591a1.136,1.136,0,0,1,.884,1.107v34.349h4.005a1.135,1.135,0,1,1,0,2.271Zm61.763-2.271V488.679l-4.766-1.09v34.535Zm-7.055,0V487.474l-9.737,1.4v33.253Zm-16.711,0V460.676l-20.064,2.424v59.025h4.9v-4.61a1.137,1.137,0,0,1,1.138-1.136h8.051a1.136,1.136,0,0,1,1.136,1.136v4.61Zm-7.118,0V518.65h-5.777v3.474Zm-15.22,0V492.068l-9.918,1.423v28.633Zm7.644-64.573v2.612l11.953-1.444v-2.832Zm17.889,1.146v-1.849l-3.663-.838v2.435l1.384-.167a1.223,1.223,0,0,1,.59.033Zm5.4,59.2V492.657a1.137,1.137,0,0,1,2.274,0v25.237a1.137,1.137,0,0,1-2.274,0Zm-35.237,0v-21.22a1.137,1.137,0,0,1,2.273,0v21.22a1.137,1.137,0,0,1-2.273,0Zm-3.811,0V497.236a1.137,1.137,0,0,1,2.273,0v20.658a1.137,1.137,0,0,1-2.273,0Zm42.859,0v-25.8a1.137,1.137,0,0,1,2.273,0v25.8a1.137,1.137,0,0,1-2.273,0Zm-17.617-5.965V466.214a1.137,1.137,0,0,1,2.273,0v45.715a1.137,1.137,0,0,1-2.273,0Zm-5.859,0V466.516a1.137,1.137,0,0,1,2.274,0v45.412a1.137,1.137,0,0,1-2.274,0Zm-5.859,0v-44.5a1.137,1.137,0,0,1,2.273,0v44.5a1.137,1.137,0,0,1-2.273,0Z" transform="translate(-1325.032 10.605)" fill="#fff" stroke="rgba(0,0,0,0)" stroke-miterlimit="10" stroke-width="1" opacity="0.694" style="mix-blend-mode: soft-light;isolation: isolate"/>
  </g>
</svg>
