<svg xmlns="http://www.w3.org/2000/svg" width="18" height="18" viewBox="0 0 18 18">
  <g id="icon" transform="translate(0 -1.686)">
    <g id="Layer_2_16_" transform="translate(0 1.686)">
      <g id="Group_9367" data-name="Group 9367" transform="translate(0 0)">
        <path id="Path_3807" data-name="Path 3807" d="M253.709,423.177c-.148.037-.3.07-.447.1a.73.73,0,0,0,.268,1.434c.179-.033.357-.073.536-.117a.729.729,0,0,0-.349-1.415Z" transform="translate(-242.891 -406.722)" fill="#ff6302"/>
        <path id="Path_3808" data-name="Path 3808" d="M412.668,137.64a.723.723,0,0,0,.915.463.731.731,0,0,0,.46-.921c-.057-.174-.121-.349-.189-.519a.722.722,0,0,0-1.27-.217.734.734,0,0,0-.071.757C412.566,137.348,412.62,137.494,412.668,137.64Z" transform="translate(-396.497 -130.958)" fill="#ff6302"/>
        <path id="Path_3809" data-name="Path 3809" d="M321.616,394.033c-.128.085-.259.167-.392.244a.732.732,0,0,0-.026,1.292.719.719,0,0,0,.749-.031c.158-.09.315-.189.466-.291a.733.733,0,0,0,.19-1,.72.72,0,0,0-.988-.216Z" transform="translate(-308.446 -378.618)" fill="#ff6302"/>
        <path id="Path_3810" data-name="Path 3810" d="M429.08,208.01a.73.73,0,0,0-.381-.635.719.719,0,0,0-.736.029.731.731,0,0,0-.33.663c.006.154.007.31,0,.464a.731.731,0,0,0,.342.656.719.719,0,0,0,.735.016.73.73,0,0,0,.37-.64C429.089,208.379,429.089,208.193,429.08,208.01Z" transform="translate(-411.087 -199.291)" fill="#ff6302"/>
        <path id="Path_3811" data-name="Path 3811" d="M378.229,344.215a.72.72,0,0,0-1.013.146c-.089.123-.189.245-.288.36a.733.733,0,0,0,.082,1.028c.017.014.035.029.053.041a.72.72,0,0,0,.967-.123c.118-.14.233-.285.343-.433a.733.733,0,0,0-.144-1.019Z" transform="translate(-362.178 -330.718)" fill="#ff6302"/>
        <path id="Path_3812" data-name="Path 3812" d="M414.858,279.385a.723.723,0,0,0-.907.478c-.046.147-.1.294-.151.438a.731.731,0,0,0,.426.921.722.722,0,0,0,.926-.4c.065-.172.125-.348.179-.522a.73.73,0,0,0-.473-.914Z" transform="translate(-397.743 -268.525)" fill="#ff6302"/>
        <path id="Path_3813" data-name="Path 3813" d="M7.662,18.247a7.432,7.432,0,0,1-1.854-.6l-.021-.011c-.138-.066-.277-.136-.411-.21h0a7.709,7.709,0,0,1-.72-.45A7.641,7.641,0,0,1,4.684,4.514L4.71,4.5a7.518,7.518,0,0,1,8.478-.068l-.566.823c-.157.229-.061.4.214.371L15.293,5.4a.4.4,0,0,0,.314-.175.41.41,0,0,0,.052-.358L15,2.473c-.074-.27-.263-.3-.42-.071l-.566.825a8.881,8.881,0,0,0-6.549-1.4q-.348.06-.685.148h0l-.026.007A8.92,8.92,0,0,0,1.8,5.32c-.011.013-.021.024-.031.038-.041.056-.082.113-.122.17-.065.09-.13.189-.191.284-.008.012-.013.023-.021.035a9.041,9.041,0,0,0-1.425,5.3q0,.009,0,.019c.008.18.022.368.042.551a.082.082,0,0,0,.005.035c.021.18.046.367.078.552a9.026,9.026,0,0,0,2.518,4.875l.009.01h0a9.13,9.13,0,0,0,1.153.97A8.887,8.887,0,0,0,7.4,19.677a.729.729,0,0,0,.256-1.435Z" transform="translate(0 -1.686)" fill="#ff6302"/>
        <path id="Path_3814" data-name="Path 3814" d="M206.573,83.2a.583.583,0,0,0-.414.172.592.592,0,0,0-.172.417v5.877l5.335,2.778a.583.583,0,0,0,.775-.261.592.592,0,0,0-.238-.787l-4.7-2.449V83.79a.587.587,0,0,0-.583-.59Z" transform="translate(-198.016 -80.019)" fill="#ff6302"/>
      </g>
    </g>
  </g>
</svg>
