<svg xmlns="http://www.w3.org/2000/svg" width="18.001" height="18" viewBox="0 0 18.001 18">
  <g id="Icon" transform="translate(-7.5)">
    <path id="XMLID_4_" d="M12.955,150.909a.909.909,0,0,0-.909-.909H8.409a.909.909,0,1,0,0,1.818h3.636a.909.909,0,0,0,.91-.909Z" transform="translate(0 -141.909)" fill="#dd2851"/>
    <path id="XMLID_5_" d="M265.227,150h-1.818a.909.909,0,0,0,0,1.818h1.818a.909.909,0,0,0,0-1.818Z" transform="translate(-240.635 -141.909)" fill="#dd2851"/>
    <path id="XMLID_6_" d="M158.409,5.455a.909.909,0,0,0,.909-.909V.909a.909.909,0,1,0-1.818,0V4.545a.909.909,0,0,0,.909.91Z" transform="translate(-141.483)" fill="#dd2851"/>
    <path id="XMLID_7_" d="M158.41,240a.909.909,0,0,0-.909.909v3.636a.909.909,0,0,0,1.818,0v-3.636a.909.909,0,0,0-.909-.909Z" transform="translate(-141.484 -227.454)" fill="#dd2851"/>
    <path id="XMLID_8_" d="M52.985,44.2A.909.909,0,1,0,51.7,45.486l2.571,2.571a.909.909,0,1,0,1.286-1.286Z" transform="translate(-41.271 -41.271)" fill="#dd2851"/>
    <path id="XMLID_9_" d="M222.692,213.907a.909.909,0,1,0-1.286,1.286l2.571,2.571a.909.909,0,1,0,1.286-1.286Z" transform="translate(-201.782 -202.692)" fill="#dd2851"/>
    <path id="XMLID_10_" d="M54.272,213.907,51.7,216.478a.909.909,0,0,0,1.286,1.286l2.571-2.571a.909.909,0,1,0-1.286-1.286Z" transform="translate(-41.272 -202.692)" fill="#dd2851"/>
  </g>
</svg>
