<svg xmlns="http://www.w3.org/2000/svg" width="20.2" height="20.2" viewBox="0 0 20.2 20.2">
  <g id="Groupe_11" data-name="Groupe 11" transform="translate(0.1 0.1)">
    <g id="Groupe_10" data-name="Groupe 10">
      <path id="Tracé_7" data-name="Tracé 7" d="M18.324,7.3l-1.1-.213a1.436,1.436,0,0,1-.887-2.26l.692-.944A.833.833,0,0,0,16.943,2.8l-1.5-1.5a.833.833,0,0,0-1.057-.1l-.93.63A1.437,1.437,0,0,1,11.235.864L11.058-.293A.833.833,0,0,0,10.234-1H8.118A.833.833,0,0,0,7.3-.324L7.027,1.1a1.437,1.437,0,0,1-2.217.918l-1.2-.813a.833.833,0,0,0-1.057.1l-1.5,1.5A.833.833,0,0,0,.974,3.884l.693.944A1.436,1.436,0,0,1,.78,7.087l-1.1.213A.833.833,0,0,0-1,8.118v2.115a.833.833,0,0,0,.706.824l1.157.178a1.437,1.437,0,0,1,.971,2.226l-.63.93a.833.833,0,0,0,.1,1.057l1.5,1.5a.833.833,0,0,0,1.082.083l.944-.692a1.437,1.437,0,0,1,2.261.887l.212,1.1A.833.833,0,0,0,8.118,19h2.116a.833.833,0,0,0,.824-.707l.125-.814a1.437,1.437,0,0,1,2.269-.94l.664.487a.833.833,0,0,0,1.082-.083l1.5-1.5a.833.833,0,0,0,.1-1.057l-.63-.93a1.436,1.436,0,0,1,.971-2.226l1.158-.178A.833.833,0,0,0,19,10.233V8.118A.833.833,0,0,0,18.324,7.3Zm-.991,2.219-.451.069a3.1,3.1,0,0,0-2.1,4.808l.244.36-.5.5-.088-.064a3.1,3.1,0,0,0-4.9,2.031l-.017.108H8.807l-.082-.427A3.1,3.1,0,0,0,3.842,14.99l-.368.27-.5-.5.244-.36a3.1,3.1,0,0,0-2.1-4.808L.667,9.519V8.806l.428-.082A3.1,3.1,0,0,0,3.01,3.842l-.27-.368.5-.5.631.427A3.1,3.1,0,0,0,8.663,1.415L8.807.667h.712l.069.45a3.1,3.1,0,0,0,4.807,2.1l.36-.244.5.5-.27.368a3.1,3.1,0,0,0,1.917,4.882l.427.082v.712Z" transform="translate(1 1)" fill="#000" stroke="#fff" stroke-width="0.2"/>
      <path id="Tracé_8" data-name="Tracé 8" d="M152.5,148.327a4.167,4.167,0,1,0,4.167,4.167A4.167,4.167,0,0,0,152.5,148.327Zm0,6.667a2.5,2.5,0,1,1,2.5-2.5A2.5,2.5,0,0,1,152.5,154.994Z" transform="translate(-142.5 -142.494)" fill="#000" stroke="#fff" stroke-width="0.2"/>
    </g>
  </g>
</svg>
