<svg xmlns="http://www.w3.org/2000/svg" width="20.2" height="20.204" viewBox="0 0 20.2 20.204">
  <g id="house" transform="translate(1.097 1.104)">
    <g id="Groupe_4" data-name="Groupe 4" transform="translate(-0.997 -1)">
      <path id="Tracé_2" data-name="Tracé 2" d="M18.73,7.55,16.5,5.525V-.167A.833.833,0,0,0,15.669-1H12.336a.833.833,0,0,0-.833.833V.98L9.65-.7,9.563-.783a.833.833,0,0,0-.194-.132l-.009,0a.834.834,0,0,0-.714,0l-.009,0a.833.833,0,0,0-.194.132l-.086.078L-.725,7.55A.833.833,0,0,0-.781,8.727.833.833,0,0,0,.4,8.783l.273-.248v9.631A.833.833,0,0,0,1.5,19h15a.833.833,0,0,0,.833-.833V8.535l.273.248A.833.833,0,1,0,18.73,7.55ZM13.169.667h1.667V4.01L13.169,2.5ZM7.336,17.333V11.5a.833.833,0,0,1,.833-.833H9.836a.833.833,0,0,1,.833.833v5.833Zm8.333,0H12.336V11.5A2.5,2.5,0,0,0,9.836,9H8.169a2.5,2.5,0,0,0-2.5,2.5v5.833H2.336V7.02L9,.96l2.768,2.517,0,0,1.917,1.742,1.977,1.8V17.333Z" transform="translate(0.997 1)" fill="#000" stroke="#fff" stroke-width="0.2"/>
    </g>
  </g>
</svg>
