<svg xmlns="http://www.w3.org/2000/svg" width="60" height="60" viewBox="0 0 60 60">
  <g id="Icon" transform="translate(-41.492 -7.55)">
    <path id="Tracé_52" data-name="Tracé 52" d="M46.536,16.284a39.1,39.1,0,0,1,8.172,2.886,1.537,1.537,0,0,0,.642.144A1.562,1.562,0,0,0,56,16.332a41.809,41.809,0,0,0-8.862-3.114,1.562,1.562,0,0,0-.6,3.066Z" transform="translate(16.578 25.027)" fill="#56d7bc"/>
    <path id="Tracé_53" data-name="Tracé 53" d="M101.492,37.55A30.083,30.083,0,1,0,98.274,51h.005A29.689,29.689,0,0,0,101.492,37.55ZM96.16,48.8A10.629,10.629,0,0,1,87.2,38.264a10.645,10.645,0,0,1,9.521-10.61A26.746,26.746,0,0,1,96.16,48.8ZM84.349,38.264l.005.082c-2.449,1.944-5.442.4-10.092-2.268-5.815-3.339-13.59-7.792-22.491-1.7a19.964,19.964,0,0,1,37.273-6.365A13.6,13.6,0,0,0,84.349,38.264ZM58.574,39.725a1.432,1.432,0,0,0-1.812-.9,12.238,12.238,0,0,0-4.772,3.092,19.845,19.845,0,0,1-.467-3.729c8.242-7.106,14.892-3.322,21.316.368,3.157,1.807,6.194,3.553,9.077,3.553a6.432,6.432,0,0,0,2.822-.67,13.466,13.466,0,0,0,3.778,6.6A19.99,19.99,0,0,1,52.99,45.117a10.1,10.1,0,0,1,4.689-3.58A1.43,1.43,0,0,0,58.574,39.725Zm12.915,24.97A27.144,27.144,0,1,1,95.507,24.92a13.453,13.453,0,0,0-4.1,1.455,22.837,22.837,0,0,0-42.764,11.1V37.5l-.005.055A22.856,22.856,0,0,0,90.79,49.8a13.477,13.477,0,0,0,3.981,1.658A26.984,26.984,0,0,1,71.489,64.694Z" transform="translate(0 0)" fill="#56d7bc"/>
  </g>
</svg>
