<svg xmlns="http://www.w3.org/2000/svg" width="23.202" height="20.24" viewBox="0 0 23.202 20.24">
  <g id="Groupe_9" data-name="Groupe 9" transform="translate(0.101 0.1)">
    <path id="Tracé_6" data-name="Tracé 6" d="M22.984,27.08c-.006-.076-.013-.134-.02-.174a6.508,6.508,0,0,0-11.514-3.818A6.259,6.259,0,0,0,6.51,20.73a6.6,6.6,0,0,0-6.468,6.2c-.007.041-.013.09-.019.148A6.557,6.557,0,0,0,.24,29.293a9.849,9.849,0,0,0,3.2,5.054l7.4,6.157a1,1,0,0,0,1.262,0l7.456-6.147a10.463,10.463,0,0,0,3.216-5.081A7.325,7.325,0,0,0,22.984,27.08ZM20.9,28.892a8.724,8.724,0,0,1-2.665,4.157l-6.761,5.57L4.714,32.995A8.044,8.044,0,0,1,2.1,28.876a4.9,4.9,0,0,1-.171-1.663l.014-.091A4.75,4.75,0,0,1,6.51,22.543a4.384,4.384,0,0,1,4.049,2.689.98.98,0,0,0,1.765,0A4.564,4.564,0,0,1,16.5,22.543a4.75,4.75,0,0,1,4.563,4.58c.007.053.008.067.011.1A5.665,5.665,0,0,1,20.9,28.892Z" transform="translate(0 -20.73)" fill="#000" stroke="#fff" stroke-width="0.2"/>
  </g>
</svg>
