<svg xmlns="http://www.w3.org/2000/svg" width="20.2" height="20.205" viewBox="0 0 20.2 20.205">
  <g id="pin_1_" data-name="pin (1)" transform="translate(1.1 1.099)">
    <g id="Groupe_8" data-name="Groupe 8" transform="translate(-1 -0.994)">
      <g id="Groupe_7" data-name="Groupe 7">
        <path id="Tracé_3" data-name="Tracé 3" d="M193.491,89.339a2.5,2.5,0,1,0-2.5-2.5A2.5,2.5,0,0,0,193.491,89.339Zm0-3.333a.833.833,0,1,1-.833.833A.833.833,0,0,1,193.491,86.006Z" transform="translate(-183.491 -81.006)" fill="#000" stroke="#fff" stroke-width="0.2"/>
        <path id="Tracé_4" data-name="Tracé 4" d="M110.415,14.533l.339.678a.833.833,0,0,0,1.491,0l.718-1.438a52.681,52.681,0,0,1,2.959-5.024l.04-.064.47-.741a5.831,5.831,0,0,0-5.616-8.9A5.829,5.829,0,0,0,106.8,8.288,40.04,40.04,0,0,1,110.415,14.533Zm-3.04-10.294a4.167,4.167,0,0,1,8.291.6,4.122,4.122,0,0,1-.641,2.215l-.468.738-.04.064a54.448,54.448,0,0,0-3.019,5.123A37.724,37.724,0,0,0,108.141,7.3,4.148,4.148,0,0,1,107.375,4.239Z" transform="translate(-101.5 0.994)" fill="#000" stroke="#fff" stroke-width="0.2"/>
        <path id="Tracé_5" data-name="Tracé 5" d="M14.191,311.482a.833.833,0,1,0-.385,1.622c2.235.53,3.527,1.378,3.527,1.983,0,1.151-3.709,2.5-8.333,2.5s-8.333-1.348-8.333-2.5c0-.606,1.291-1.453,3.525-1.983a.833.833,0,0,0-.385-1.622C.883,312.176-1,313.412-1,315.087c0,2.531,4.5,4.167,10,4.167s10-1.635,10-4.167C19,313.412,17.116,312.176,14.191,311.482Z" transform="translate(1 -299.254)" fill="#000" stroke="#fff" stroke-width="0.2"/>
      </g>
    </g>
  </g>
</svg>
