<svg xmlns="http://www.w3.org/2000/svg" xmlns:xlink="http://www.w3.org/1999/xlink" width="150" height="90" viewBox="0 0 150 90">
  <defs>
    <clipPath id="clip-path">
      <rect id="Purple_Background" data-name="Purple Background" width="150" height="90" rx="8" transform="translate(80 445)" fill="#fff" style="mix-blend-mode: soft-light;isolation: isolate"/>
    </clipPath>
  </defs>
  <g id="Groupe_de_masques_2" data-name="Groupe de masques 2" transform="translate(-80 -445)" clip-path="url(#clip-path)">
    <path id="Union_2" data-name="Union 2" d="M-845.269,1955.779a1.1,1.1,0,0,1-1.1-1.1,1.1,1.1,0,0,1,1.1-1.1h5.4v-8.251a1.1,1.1,0,0,1,1.1-1.1h42.507V1942.1H-816.6a1.1,1.1,0,0,1-1.1-1.1,1.1,1.1,0,0,1,1.1-1.1h20.338v-2.664H-816.6a1.1,1.1,0,0,1-1.1-1.1,1.1,1.1,0,0,1,1.1-1.1h20.338v-2.665h-12.327a1.1,1.1,0,0,1-1.1-1.1,1.1,1.1,0,0,1,1.1-1.1h12.327v-2.664h-8.518a1.1,1.1,0,0,1-1.1-1.1,1.1,1.1,0,0,1,1.1-1.1h8.518v-2.665h-6.286a1.1,1.1,0,0,1-1.1-1.1,1.1,1.1,0,0,1,1.1-1.1h6.286v-2.664h-5.5a1.1,1.1,0,0,1-1.1-1.1,1.1,1.1,0,0,1,1.1-1.1h5.5v-2.665h-5.5a1.1,1.1,0,0,1-1.1-1.1,1.1,1.1,0,0,1,1.1-1.1h5.5v-2.664h-5.5a1.1,1.1,0,0,1-1.1-1.1,1.1,1.1,0,0,1,1.1-1.1h5.5v-2.665h-5.5a1.1,1.1,0,0,1-1.1-1.1,1.1,1.1,0,0,1,1.1-1.1h5.5v-2.664h-5.5a1.1,1.1,0,0,1-1.1-1.1,1.1,1.1,0,0,1,1.1-1.1h5.5v-2.663h-5.5a1.1,1.1,0,0,1-1.1-1.1,1.1,1.1,0,0,1,1.1-1.1h5.5v-2.664h-5.5a1.1,1.1,0,0,1-1.1-1.1,1.1,1.1,0,0,1,1.1-1.1h5.5v-2.4h-9.148v31.259A18.5,18.5,0,0,1-818.843,1933a5.3,5.3,0,0,0-3.882,5.067v3.3a1.1,1.1,0,0,1-1.1,1.1,1.1,1.1,0,0,1-1.1-1.1v-3.3a7.511,7.511,0,0,1,5.487-7.187,16.287,16.287,0,0,0,11.832-15.639V1884.8l-3.923,2.3v26.552a15.6,15.6,0,0,1-3.827,10.007,19.013,19.013,0,0,1-9.567,5.987,5.24,5.24,0,0,0-3.924,5.033v6.688a1.1,1.1,0,0,1-1.1,1.1,1.1,1.1,0,0,1-1.1-1.1v-6.687a7.443,7.443,0,0,1,5.558-7.161c6.814-1.809,11.76-7.641,11.76-13.866v-27.182a1.1,1.1,0,0,1,.544-.95l6.1-3.577a1.09,1.09,0,0,1,.287-.124l.011,0h0a1.1,1.1,0,0,1,.295-.035h11.326a1.1,1.1,0,0,1,1.1,1.1v61.346h4.219a1.1,1.1,0,0,1,1.1,1.1v8.251h5.4a1.1,1.1,0,0,1,1.1,1.1,1.1,1.1,0,0,1-1.1,1.1Zm54.329-2.2v-7.15h-39.634v7.15h5.544v-3.67a1.1,1.1,0,0,1,1.1-1.1h10.709a1.1,1.1,0,0,1,1.1,1.1v3.67h4.311v-3.67a1.1,1.1,0,0,1,1.1-1.1H-796a1.1,1.1,0,0,1,1.1,1.1v3.67Zm-6.161,0v-2.569h-8.511v2.569Zm-17.219,0v-2.569h-8.511v2.569Zm-18.453,0v-7.15h-4.893v7.15Z" transform="translate(1018.368 -1420.779)" fill="#fff" stroke="rgba(0,0,0,0)" stroke-miterlimit="10" stroke-width="1" opacity="0.7" style="mix-blend-mode: soft-light;isolation: isolate"/>
  </g>
</svg>
